<svg xmlns="http://www.w3.org/2000/svg" version="1.1" xmlns:xlink="http://www.w3.org/1999/xlink" xmlns:svgjs="http://svgjs.dev/svgjs" viewBox="0 0 800 800"><defs><linearGradient x1="50%" y1="0%" x2="50%" y2="100%" id="ccchaos-grad"><stop stop-color="hsl(205, 69%, 60%)" stop-opacity="1" offset="0%"></stop><stop stop-color="hsl(205, 69%, 80%)" stop-opacity="1" offset="100%"></stop></linearGradient></defs><g stroke-width="2" stroke="url(#ccchaos-grad)" fill="none" stroke-linecap="round"><path d="M396.82 128.17C406.62 127.2 416.6 125.78 426.77 124.06 436.96 121.72 447.35 119.52 457.92 117.7 468.54 115.98 479.36 115.1 490.33 115.22 501.34 116.03 512.49 118.08 523.7 121.38 534.87 125.53 546.02 130.86 557.01 137.23 567.8 144.22 578.25 151.99 588.2 160.34 597.68 168.89 606.41 177.72 614.19 186.67 621.22 195.41 627.09 204.08 631.64 212.6 635.29 220.69 637.57 228.56 638.48 236.23 638.69 243.43 637.76 250.48 635.92 257.43 634.02 264 631.76 270.59 629.52 277.26 628.2 283.67 627.6 290.28 628.06 297.12 630.3 303.82 634.05 310.85 639.4 318.22 646.65 325.53 655.3 333.23 665.02 341.33 675.7 349.4 686.51 357.89 696.83 366.82 706.39 375.73 714.23 385.08 719.77 394.87 723.04 404.67 723.3 414.7 720.62 424.94 715.66 435.21 708.26 445.71 698.96 456.42 688.58 467.16 677.33 478.13 665.83 489.28 654.79 500.45 644.41 511.78 635.04 523.17 627.16 534.49 620.64 545.78 615.47 556.9 611.93 567.77 609.53 578.26 608 588.2 607.58 597.59 607.51 606.16 607.48 613.71 606.3 628.61 594.96 634.52 587.01 631.91 580.83 630.08 573.74 628.15 565.88 626.54 557.6 626.13 548.71 626.75 539.33 628.71 529.71 632.63 519.76 638.19 509.59 645.37 499.31 654.3 488.9 664.34 478.45 675.03 467.98 686.09 457.51 696.62 447.09 705.91 436.68 713.69 426.34 719.04 416.09 721.48 405.84 721.27 395.9 717.96 386.28 711.87 376.63 703.87 367.25 694.08 358.13 683.21 348.95 672.17 339.98 661.27 331.2 651.08 322.3 642.29 313.55 634.92 304.91 629.11 296.11 625.25 287.38 622.88 278.7 621.76 269.84 622.12 261.01 623.12 252.21 624.39 243.25 626.15 234.34 627.5 225.52 628.13 216.63 628.39 207.89 627.5 199.39 625.37 190.95 622.42 182.86 618.14 175.22 612.6 167.81 606.23 160.97 598.75 154.77 590.34 148.96 581.33 143.86 571.61 139.53 561.39 135.61 550.83 132.43 539.97 129.99 528.96 127.83 517.82 126.29 506.65 125.31 495.56 124.36 484.45 123.78 473.46 123.52 462.67 123 451.89 122.62 441.31 122.36 430.96 121.64 420.62 120.97 410.5 120.35 400.62 119.31 390.74 118.44 381.31 117.82 372.33 117.02 363.33 116.65 354.75 116.8 346.59 117.08 338.38 118.05 330.55 119.76 323.08 121.82 315.51 124.71 308.25 128.4 301.26 132.53 294.09 137.43 287.09 143.03 280.23 148.96 273.07 155.48 265.93 162.49 258.75 169.62 251.18 177.09 243.47 184.81 235.6 192.43 227.29 200.18 218.79 208.01 210.13 215.59 201.13 223.19 192.07 230.79 183.04 238.09 173.96 245.4 165.15 252.74 156.78 259.8 148.75 266.94 141.46 274.19 135.08 281.22 129.42 288.43 124.87 295.84 121.56 303.11 119.06 310.64 117.77 318.44 117.62 326.16 117.99 334.2 119.19 342.57 121.04 350.88 122.76 359.56 124.64 368.6 126.46 377.61 127.49 387.01 128.09 396.81 128.18" stroke-dasharray="7 1" transform="rotate(0, 400, 400)" opacity="0.05"></path><path d="M403.31 139.58C412.88 138.64 422.62 137.27 432.53 135.62 442.46 133.34 452.57 131.18 462.82 129.33 473.1 127.52 483.52 126.47 494.02 126.32 504.53 126.76 515.08 128.36 525.59 131.13 536 134.69 546.27 139.41 556.27 145.17 566 151.57 575.29 158.8 583.97 166.69 592.17 174.86 599.56 183.42 605.98 192.2 611.71 200.91 616.32 209.63 619.72 218.29 622.38 226.63 623.84 234.81 624.15 242.82 623.98 250.42 622.94 257.87 621.23 265.2 619.68 272.16 617.99 279.09 616.5 286.04 616 292.71 616.29 299.5 617.64 306.46 620.65 313.25 625.04 320.29 630.86 327.61 638.33 334.84 646.97 342.41 656.48 350.34 666.74 358.22 677.01 366.5 686.73 375.19 695.69 383.85 703.04 392.94 708.24 402.47 711.38 412 711.76 421.75 709.43 431.71 705 441.69 698.28 451.87 689.73 462.23 680.09 472.61 669.52 483.15 658.55 493.79 647.85 504.42 637.57 515.09 628.07 525.72 619.8 536.22 612.69 546.55 606.77 556.59 602.33 566.3 598.97 575.52 596.51 584.08 594.74 595.65 593.32 612.72 592.32 617.71 586.7 619.99 568.14 615.33 558.41 613.98 551.29 614.49 543.51 616.06 535.19 618.93 526.62 623.59 517.63 629.72 508.32 637.24 498.9 646.24 489.25 656.13 479.46 666.46 469.63 677 459.71 686.92 449.76 695.59 439.81 702.83 429.85 707.8 419.91 710.07 409.96 709.92 400.26 706.9 390.8 701.31 381.32 693.91 372.06 684.79 362.99 674.54 353.87 664.01 344.91 653.45 336.09 643.38 327.18 634.44 318.37 626.67 309.64 620.26 300.78 615.58 291.97 612.29 283.21 610.22 274.31 609.59 265.45 609.72 256.64 610.29 247.73 611.53 238.9 612.6 230.2 613.22 221.49 613.73 212.99 613.36 204.76 611.97 196.67 609.99 188.96 606.84 181.73 602.55 174.77 597.55 168.4 591.47 162.67 584.45 157.33 576.84 152.7 568.47 148.81 559.49 145.29 550.13 142.49 540.36 140.38 530.31 138.51 520.07 137.21 509.7 136.42 499.29 135.62 488.82 135.17 478.38 134.99 468.06 134.53 457.73 134.19 447.54 133.93 437.53 133.22 427.54 132.53 417.72 131.88 408.11 130.8 398.5 129.88 389.31 129.17 380.54 128.28 371.74 127.79 363.32 127.78 355.27 127.88 347.17 128.63 339.39 130.08 331.91 131.87 324.31 134.45 316.95 137.81 309.78 141.6 302.43 146.15 295.18 151.41 287.99 157.01 280.51 163.23 273.01 169.95 265.43 176.85 257.5 184.13 249.43 191.7 241.22 199.24 232.65 206.95 223.94 214.78 215.15 222.42 206.14 230.11 197.16 237.82 188.32 245.27 179.55 252.74 171.14 260.22 163.27 267.45 155.81 274.73 149.14 282.09 143.41 289.23 138.4 296.51 134.48 303.95 131.73 311.23 129.73 318.73 128.84 326.46 128.99 334.1 129.57 342.02 130.89 350.24 132.76 358.4 134.46 366.9 136.28 375.73 138.01 384.55 138.97 393.73 139.52 403.3 139.59" stroke-dasharray="4 8" transform="rotate(4.04, 400, 400)" opacity="0.09"></path><path d="M409.52 150.99C418.84 150.08 428.31 148.77 437.9 147.18 447.51 144.98 457.24 142.86 467.06 141.01 476.89 139.14 486.79 137.94 496.7 137.55 506.58 137.66 516.4 138.83 526.08 141.09 535.62 144.09 544.91 148.2 553.83 153.32 562.46 159.1 570.55 165.73 577.99 173.07 584.95 180.78 591.08 188.95 596.27 197.45 600.85 205.98 604.4 214.63 606.86 223.3 608.75 231.76 609.63 240.14 609.57 248.39 609.25 256.31 608.28 264.1 606.88 271.77 605.8 279.11 604.77 286.39 604.06 293.64 604.39 300.62 605.53 307.66 607.69 314.8 611.38 321.77 616.32 328.91 622.5 336.27 630.11 343.52 638.68 351.05 647.91 358.89 657.74 366.66 667.46 374.79 676.59 383.27 684.97 391.74 691.84 400.59 696.71 409.84 699.72 419.09 700.2 428.53 698.19 438.13 694.26 447.74 688.2 457.51 680.37 467.4 671.48 477.28 661.6 487.24 651.2 497.23 640.9 507.15 630.84 517.02 621.32 526.74 612.81 536.27 605.25 545.54 598.71 554.39 593.49 562.89 589.27 570.81 585.91 578.02 578.75 600.17 569.69 604.86 564.26 603.08 560.03 602.35 555.01 601.92 549.24 602.07 543.15 603.49 536.4 605.95 529.07 609.63 521.51 614.92 513.47 621.51 505.03 629.27 496.48 638.26 487.61 647.93 478.52 657.85 469.38 667.84 460.07 677.15 450.64 685.23 441.19 691.95 431.66 696.55 422.07 698.66 412.48 698.57 403.04 695.83 393.78 690.7 384.51 683.89 375.38 675.42 366.4 665.81 357.37 655.82 348.46 645.65 339.64 635.78 330.75 626.79 321.93 618.75 313.17 611.85 304.32 606.48 295.5 602.35 286.74 599.38 277.89 597.8 269.08 597.03 260.36 596.82 251.59 597.39 242.94 598.01 234.47 598.41 226.04 598.91 217.86 598.78 210 597.87 202.32 596.58 195.06 594.31 188.3 591.04 181.84 587.2 175.97 582.36 170.75 576.61 165.9 570.33 161.73 563.25 158.28 555.51 155.17 547.4 152.73 538.78 150.93 529.78 149.33 520.56 148.24 511.09 147.63 501.48 146.97 491.78 146.61 482.02 146.49 472.28 146.08 462.52 145.76 452.82 145.5 443.22 144.79 433.63 144.09 424.16 143.41 414.85 142.3 405.53 141.33 396.58 140.55 387.97 139.58 379.35 138.98 371.05 138.83 363.05 138.76 354.99 139.3 347.19 140.51 339.63 142.02 331.94 144.29 324.42 147.32 317.03 150.75 309.45 154.93 301.93 159.81 294.41 165.05 286.63 170.91 278.8 177.31 270.88 183.92 262.66 190.94 254.32 198.3 245.88 205.69 237.17 213.29 228.4 221.05 219.62 228.69 210.73 236.41 201.97 244.17 193.46 251.74 185.11 259.32 177.21 266.93 169.91 274.31 163.09 281.73 157.09 289.2 152.02 296.48 147.66 303.86 144.34 311.36 142.13 318.7 140.6 326.22 140.07 333.94 140.48 341.55 141.25 349.41 142.65 357.52 144.52 365.57 146.18 373.93 147.92 382.59 149.56 391.22 150.45 400.19 150.95 409.51 150.99" stroke-dasharray="4 9" transform="rotate(8.08, 400, 400)" opacity="0.13"></path><path d="M414.95 162.4C423.99 161.52 433.13 160.27 442.34 158.75 451.56 156.65 460.84 154.59 470.14 152.74 479.43 150.84 488.72 149.52 497.93 148.92 507.07 148.74 516.07 149.52 524.85 151.3 533.45 153.75 541.72 157.25 549.54 161.73 557.07 166.86 564.01 172.86 570.27 179.59 576.08 186.74 581.1 194.44 585.22 202.53 588.84 210.76 591.53 219.2 593.29 227.75 594.64 236.19 595.16 244.63 594.96 253 594.67 261.13 593.95 269.17 592.99 277.1 592.48 284.76 592.15 292.34 592.24 299.87 593.37 307.16 595.3 314.46 598.2 321.81 602.48 328.99 607.86 336.28 614.3 343.73 621.96 351.06 630.4 358.61 639.32 366.4 648.69 374.13 657.86 382.14 666.4 390.44 674.22 398.73 680.62 407.35 685.19 416.29 688.06 425.24 688.62 434.32 686.92 443.5 683.46 452.68 678.01 461.95 670.89 471.25 662.73 480.54 653.55 489.82 643.76 499.02 633.94 508.14 624.17 517.1 614.76 525.81 606.14 534.32 598.26 542.46 591.25 550.1 585.37 557.41 580.38 564.08 576.22 570.01 565.69 587.18 556.15 590.44 551.46 589.43 545.75 589.61 530.5 594.76 521.13 600.78 514.48 606.61 507.33 613.53 499.74 621.43 492.02 630.33 483.94 639.71 475.56 649.19 467.12 658.63 458.43 667.34 449.55 674.83 440.66 681.05 431.59 685.29 422.39 687.25 413.19 687.2 404.08 684.73 395.06 680.05 386.04 673.81 377.1 665.97 368.25 657 359.37 647.58 350.55 637.85 341.8 628.25 333 619.32 324.25 611.12 315.54 603.86 306.78 597.91 298.05 593.05 289.38 589.26 280.67 586.77 272.03 585.11 263.5 584.07 254.97 583.88 246.61 583.91 238.45 583.91 230.4 584.18 222.63 584.05 215.22 583.36 208.02 582.49 201.26 580.82 195.02 578.32 189.1 575.4 183.76 571.6 179.05 566.94 174.7 561.84 171 555.97 167.98 549.4 165.26 542.49 163.16 535.01 161.65 527.08 160.3 518.92 159.41 510.43 158.94 501.7 158.4 492.85 158.11 483.85 158.04 474.77 157.65 465.66 157.34 456.52 157.07 447.4 156.36 438.28 155.64 429.21 154.93 420.21 153.81 411.21 152.8 402.49 151.96 394.06 150.93 385.6 150.23 377.39 149.95 369.42 149.73 361.38 150.08 353.54 151.04 345.86 152.29 338.07 154.26 330.38 156.94 322.76 160 314.97 163.8 307.19 168.28 299.39 173.13 291.37 178.6 283.28 184.62 275.11 190.88 266.71 197.59 258.23 204.67 249.7 211.83 241 219.25 232.3 226.87 223.68 234.43 215.06 242.11 206.65 249.86 198.58 257.47 190.76 265.12 183.45 272.8 176.8 280.29 170.65 287.83 165.33 295.4 160.94 302.8 157.22 310.27 154.49 317.84 152.78 325.26 151.67 332.83 151.47 340.54 152.11 348.16 153.01 355.97 154.47 364 156.32 371.97 157.93 380.2 159.58 388.68 161.12 397.14 161.93 405.89 162.38 414.94 162.4" stroke-dasharray="0 8" transform="rotate(12.12, 400, 400)" opacity="0.16"></path><path d="M419.12 173.81C427.86 172.97 436.63 171.78 445.4 170.34 454.17 168.32 462.94 166.34 471.65 164.52 480.34 162.61 488.94 161.2 497.38 160.42 505.74 159.98 513.88 160.41 521.71 161.74 529.37 163.68 536.63 166.59 543.39 170.45 549.87 174.92 555.75 180.24 560.94 186.32 565.76 192.86 569.82 199.98 573.07 207.57 575.93 215.37 577.99 223.47 579.27 231.76 580.3 240.05 580.68 248.4 580.52 256.75 580.44 264.96 580.1 273.12 579.68 281.2 579.79 289.08 580.19 296.88 581.07 304.63 582.94 312.18 585.59 319.71 589.13 327.25 593.91 334.63 599.63 342.08 606.25 349.62 613.88 357.05 622.12 364.64 630.69 372.39 639.58 380.09 648.2 388 656.17 396.13 663.45 404.25 669.39 412.62 673.66 421.24 676.4 429.86 677.04 438.53 675.6 447.23 672.58 455.93 667.71 464.62 661.28 473.28 653.83 481.89 645.35 490.42 636.21 498.77 626.92 507.03 617.53 515.03 608.33 522.71 599.72 530.18 591.67 537.21 584.31 543.71 577.92 549.88 572.3 555.42 567.42 560.23 553.37 573.59 542.52 576.54 538.24 576.48 533.22 577.82 519.91 585.39 511.66 592.37 505.81 598.61 499.44 605.77 492.62 613.7 485.68 622.43 478.34 631.47 470.65 640.48 462.9 649.35 454.84 657.46 446.53 664.38 438.19 670.12 429.63 674.03 420.86 675.84 412.09 675.84 403.33 673.61 394.61 669.36 385.88 663.66 377.19 656.45 368.54 648.11 359.87 639.27 351.23 630.03 342.63 620.76 334 611.98 325.4 603.73 316.84 596.23 308.26 589.83 299.72 584.37 291.26 579.85 282.79 576.53 274.43 574.01 266.19 572.14 258.02 571.16 250.04 570.49 242.3 569.95 234.7 569.83 227.42 569.48 220.52 568.77 213.86 568.06 207.66 566.74 201.98 564.75 194.21 560.99 182.15 549.19 177.92 541.25 175.57 535.44 173.79 529.03 172.54 522.13 171.41 515.01 170.69 507.49 170.34 499.65 169.89 491.69 169.66 483.49 169.61 475.13 169.24 466.71 168.93 458.18 168.65 449.59 167.93 440.99 167.19 432.35 166.46 423.7 165.32 415.05 164.28 406.59 163.4 398.33 162.32 390.05 161.54 381.94 161.14 373.99 160.78 365.99 160.95 358.11 161.7 350.33 162.69 342.45 164.35 334.62 166.69 326.81 169.39 318.87 172.79 310.9 176.86 302.9 181.28 294.73 186.33 286.5 191.93 278.22 197.8 269.78 204.14 261.3 210.87 252.82 217.74 244.27 224.9 235.8 232.29 227.49 239.69 219.27 247.24 211.34 254.9 203.82 262.47 196.61 270.11 189.96 277.8 184 285.35 178.56 292.94 173.93 300.56 170.21 308.05 167.09 315.59 164.91 323.2 163.67 330.69 162.94 338.28 163.02 345.99 163.85 353.61 164.86 361.39 166.34 369.32 168.15 377.21 169.69 385.3 171.24 393.6 172.67 401.87 173.41 410.38 173.81 419.11 173.81" stroke-dasharray="5 9" transform="rotate(16.16, 400, 400)" opacity="0.20"></path><path d="M421.71 185.22C430.1 184.41 438.45 183.29 446.74 181.93 455.02 180.02 463.22 178.11 471.3 176.35 479.34 174.45 487.22 172.98 494.88 172.06 502.44 171.4 509.71 171.51 516.62 172.45 523.37 173.9 529.67 176.26 535.46 179.5 540.99 183.31 545.93 187.96 550.22 193.36 554.21 199.23 557.51 205.71 560.09 212.71 562.41 219.99 564.05 227.62 565.07 235.52 565.97 243.5 566.4 251.62 566.46 259.82 566.71 267.95 566.85 276.08 567.03 284.18 567.8 292.15 568.92 300.07 570.54 307.94 573.11 315.65 576.39 323.33 580.48 331 585.64 338.54 591.61 346.1 598.31 353.7 605.85 361.22 613.83 368.82 622.02 376.52 630.41 384.18 638.48 391.98 645.89 399.92 652.64 407.85 658.16 415.95 662.13 424.21 664.74 432.48 665.44 440.71 664.25 448.89 661.64 457.06 657.32 465.14 651.53 473.1 644.78 481.01 637.01 488.74 628.53 496.23 619.8 503.61 610.87 510.68 601.97 517.36 593.49 523.84 585.4 529.84 577.85 535.3 571.08 540.48 564.96 545.03 559.48 548.91 547.9 557.01 536 562.36 532.6 562.63 529.17 563.32 520.37 566.8 514.73 570.51 510.69 574.28 506.12 578.89 501.04 584.36 495.84 590.89 490.14 598.18 483.99 606.05 477.74 614.55 471.07 623.2 464.02 631.71 456.92 640 449.47 647.52 441.72 653.9 433.94 659.17 425.89 662.76 417.58 664.43 409.27 664.47 400.92 662.48 392.55 658.63 384.18 653.45 375.8 646.84 367.42 639.13 359.04 630.89 350.65 622.16 342.29 613.29 333.93 604.74 325.58 596.55 317.28 588.92 308.98 582.2 300.74 576.26 292.59 571.14 284.47 567.08 276.48 563.77 268.65 561.1 260.92 559.3 253.41 557.9 246.17 556.73 239.11 556.06 232.38 555.34 226.05 554.41 217.16 553.02 202.31 547.61 196.51 543.27 191.74 537.92 185.36 523.69 183.61 514.99 182.66 508.84 182.08 502.23 181.83 495.26 181.45 488.17 181.26 480.77 181.21 473.12 180.85 465.43 180.53 457.54 180.22 449.49 179.49 441.44 178.74 433.26 177.99 424.99 176.84 416.72 175.79 408.55 174.87 400.49 173.75 392.42 172.91 384.44 172.41 376.55 171.93 368.62 171.94 360.74 172.47 352.91 173.22 345 174.59 337.1 176.6 329.2 178.94 321.19 181.94 313.14 185.58 305.07 189.57 296.87 194.17 288.64 199.32 280.38 204.75 272.04 210.67 263.72 216.99 255.46 223.49 247.22 230.32 239.12 237.41 231.25 244.56 223.54 251.9 216.2 259.37 209.31 266.82 202.78 274.36 196.84 281.97 191.59 289.49 186.86 297.07 182.92 304.67 179.83 312.18 177.3 319.74 175.63 327.34 174.8 334.85 174.41 342.44 174.73 350.1 175.7 357.7 176.78 365.41 178.26 373.23 180.01 381.02 181.47 388.95 182.91 397.02 184.23 405.08 184.9 413.31 185.24 421.7 185.22" stroke-dasharray="7 2" transform="rotate(20.200000000000003, 400, 400)" opacity="0.24"></path><path d="M422.49 196.63C430.49 195.86 438.39 194.8 446.16 193.53 453.92 191.72 461.54 189.91 468.96 188.21 476.35 186.35 483.51 184.85 490.38 183.82 497.17 182.98 503.62 182.83 509.68 183.4 518.3 185.33 532.76 194.08 538.41 200.77 541.75 205.94 544.49 211.74 546.62 218.08 548.59 224.74 550.02 231.81 550.97 239.21 551.93 246.75 552.55 254.5 552.95 262.39 553.63 270.29 554.32 278.25 555.13 286.23 556.56 294.13 558.37 302.03 560.67 309.89 563.85 317.65 567.67 325.38 572.19 333.08 577.65 340.68 583.76 348.28 590.46 355.89 597.83 363.42 605.52 370.99 613.29 378.61 621.18 386.18 628.7 393.83 635.57 401.55 641.81 409.27 646.91 417.07 650.61 424.94 653.08 432.82 653.83 440.59 652.87 448.22 650.63 455.84 646.83 463.3 641.65 470.55 635.58 477.76 628.5 484.72 620.69 491.37 612.57 497.92 604.14 504.11 595.64 509.87 587.39 515.46 579.39 520.57 571.76 525.13 564.77 529.49 558.29 533.26 552.35 536.42 538.88 543.17 524.26 548.4 520.27 549.32 516.47 550.92 507.63 556.6 502.3 561.39 498.57 565.77 494.39 570.87 489.75 576.7 485.04 583.42 479.88 590.72 474.28 598.46 468.61 606.65 462.52 614.88 456.05 622.86 449.53 630.58 442.65 637.52 435.44 643.37 428.21 648.2 420.67 651.49 412.84 653.02 405.02 653.09 397.1 651.32 389.13 647.85 381.17 643.17 373.16 637.14 365.13 630.05 357.11 622.42 349.07 614.23 341.04 605.81 333.02 597.57 325.03 589.53 317.08 581.89 309.17 574.97 301.33 568.68 293.6 563.08 285.93 558.4 278.41 554.39 271.08 550.99 263.88 548.41 256.91 546.26 250.24 544.42 240.69 542.5 223.92 538.88 216.89 536.55 210.78 533.79 201.63 525.51 198.57 519.87 196.25 513.43 193.81 497.72 193.39 488.64 193.06 482.36 192.88 475.71 192.83 468.77 192.46 461.77 192.12 454.51 191.79 447.03 191.05 439.53 190.28 431.83 189.52 423.97 188.37 416.1 187.3 408.25 186.37 400.44 185.22 392.62 184.33 384.82 183.75 377.04 183.17 369.24 183.03 361.44 183.37 353.65 183.89 345.8 184.99 337.93 186.68 330.04 188.66 322.08 191.27 314.08 194.49 306.06 198.03 297.99 202.16 289.9 206.84 281.83 211.8 273.75 217.25 265.73 223.12 257.84 229.19 250.04 235.61 242.44 242.32 235.13 249.14 228.05 256.17 221.36 263.38 215.18 270.61 209.36 277.96 204.16 285.39 199.64 292.79 195.6 300.26 192.32 307.76 189.84 315.21 187.85 322.7 186.63 330.23 186.17 337.7 186.06 345.22 186.58 352.78 187.65 360.3 188.77 367.9 190.22 375.56 191.89 383.2 193.25 390.93 194.58 398.75 195.79 406.56 196.37 414.48 196.67 422.48 196.63" stroke-dasharray="3 8" transform="rotate(24.24, 400, 400)" opacity="0.28"></path><path d="M421.4 208.04C428.98 207.31 436.4 206.32 443.64 205.13 450.87 203.44 457.89 201.73 464.67 200.11 471.41 198.3 477.87 196.8 484.02 195.7 492.94 194.53 508.6 195.91 515.18 198.71 521.03 202.95 529.9 215.63 532.97 223.82 534.78 229.8 536.18 236.22 537.23 243.02 538.38 250.01 539.32 257.26 540.15 264.71 541.32 272.23 542.58 279.87 544.03 287.58 546.09 295.27 548.52 303 551.43 310.71 555.13 318.37 559.39 326.02 564.25 333.64 569.89 341.2 576.06 348.73 582.68 356.25 589.83 363.72 597.17 371.18 604.51 378.64 611.88 386.08 618.87 393.52 625.2 400.98 630.96 408.43 635.66 415.9 639.08 423.36 641.42 430.83 642.2 438.12 641.45 445.2 639.55 452.27 636.23 459.11 631.64 465.68 626.21 472.21 619.82 478.45 612.68 484.33 605.19 490.13 597.32 495.54 589.27 500.51 581.36 505.35 573.55 509.72 565.99 513.59 558.9 517.3 552.2 520.5 545.94 523.17 537.7 526.77 524.12 531.7 518.5 533.35 509.21 537.28 495.43 547.2 490.18 552.94 486.59 557.8 482.63 563.28 478.29 569.36 473.92 576.15 469.14 583.38 463.98 590.9 458.77 598.73 453.17 606.49 447.19 613.95 441.19 621.09 434.82 627.46 428.12 632.81 421.41 637.21 414.37 640.21 407.04 641.61 399.7 641.71 392.25 640.15 384.73 637.04 377.22 632.82 369.64 627.36 362.02 620.88 354.43 613.85 346.81 606.23 339.2 598.3 331.63 590.43 324.08 582.63 316.58 575.09 309.14 568.1 301.79 561.59 294.57 555.63 287.43 550.45 280.46 545.85 273.7 541.8 267.08 538.51 260.72 535.64 254.67 533.12 246.06 530.25 231.13 525.32 224.98 522.71 215.76 516.19 207.35 501.87 206.2 495.32 205.35 488.14 204.63 471.53 204.47 462.25 204.08 455.9 203.71 449.25 203.35 442.31 202.6 435.37 201.82 428.16 201.04 420.72 199.9 413.29 198.84 405.8 197.89 398.28 196.73 390.76 195.8 383.2 195.16 375.62 194.49 368.02 194.23 360.39 194.4 352.73 194.72 345.05 195.56 337.32 196.95 329.57 198.59 321.8 200.82 313.99 203.61 306.19 206.71 298.37 210.37 290.58 214.56 282.85 219.02 275.17 223.97 267.61 229.35 260.22 234.94 252.98 240.9 245.99 247.16 239.34 253.56 232.94 260.22 226.98 267.06 221.54 273.97 216.47 281.03 211.99 288.2 208.19 295.38 204.82 302.64 202.16 309.95 200.24 317.24 198.73 324.58 197.91 331.95 197.77 339.28 197.89 346.66 198.55 354.06 199.69 361.43 200.82 368.85 202.22 376.3 203.79 383.73 205.04 391.21 206.26 398.73 207.35 406.24 207.85 413.8 208.1 421.38 208.04" stroke-dasharray="7 4" transform="rotate(28.28, 400, 400)" opacity="0.32"></path><path d="M418.52 219.45C425.66 218.76 432.59 217.83 439.3 216.73 445.99 215.16 452.43 213.57 458.6 212.04 467.65 209.56 484 206.33 491.17 206.05 497.79 206.81 508.67 212.27 512.91 216.98 516.6 222.93 522.06 238.16 524.09 247.14 525.53 253.49 526.87 260.14 528.19 267.03 529.88 274.05 531.71 281.24 533.76 288.53 536.39 295.87 539.38 303.27 542.8 310.69 546.92 318.12 551.52 325.54 556.6 332.95 562.33 340.33 568.48 347.69 574.94 355.01 581.81 362.3 588.77 369.57 595.66 376.8 602.52 384.02 608.97 391.2 614.79 398.34 620.07 405.48 624.39 412.58 627.55 419.62 629.76 426.65 630.57 433.45 629.99 440 628.41 446.53 625.54 452.79 621.5 458.74 616.69 464.66 610.95 470.24 604.49 475.46 597.64 480.61 590.36 485.37 582.82 489.71 575.32 493.96 567.81 497.78 560.43 501.13 553.39 504.41 546.61 507.24 540.17 509.64 531.43 513.01 516.46 518.19 510.06 520.33 504.46 522.82 494.17 528.93 489.12 533.06 485.88 536.59 482.45 540.6 478.8 545.11 475.22 550.34 471.34 556.08 467.17 562.28 462.99 569.04 458.49 576.11 453.64 583.34 448.77 590.76 443.56 598.04 438 604.94 432.43 611.52 426.52 617.34 420.29 622.2 414.04 626.2 407.49 628.92 400.64 630.2 393.8 630.33 386.84 628.96 379.79 626.18 372.76 622.41 365.66 617.49 358.52 611.6 351.41 605.17 344.28 598.13 337.17 590.72 330.1 583.28 323.06 575.8 316.1 568.45 309.21 561.51 302.42 554.9 295.77 548.72 289.23 543.18 282.87 538.12 276.74 533.54 270.75 529.62 265.02 526.11 259.62 522.94 251.96 519.11 238.86 512.65 233.54 509.56 225.67 502.86 218.64 489.57 217.7 483.69 216.99 477.3 216.31 462.4 216.11 453.98 215.7 448.21 215.3 442.11 214.91 435.7 214.14 429.27 213.36 422.55 212.57 415.56 211.44 408.57 210.38 401.47 209.43 394.3 208.28 387.13 207.33 379.88 206.64 372.58 205.9 365.28 205.53 357.91 205.55 350.51 205.69 343.1 206.3 335.64 207.4 328.17 208.73 320.71 210.59 313.24 212.98 305.79 215.64 298.38 218.84 291.03 222.53 283.78 226.49 276.63 230.91 269.64 235.76 262.87 240.84 256.28 246.28 249.98 252.05 244.05 257.97 238.39 264.16 233.19 270.57 228.5 277.08 224.16 283.76 220.4 290.57 217.28 297.42 214.54 304.37 212.45 311.4 211.02 318.43 209.94 325.52 209.46 332.64 209.58 339.75 209.88 346.89 210.64 354.05 211.8 361.19 212.91 368.36 214.24 375.53 215.7 382.69 216.83 389.87 217.93 397.04 218.9 404.21 219.33 411.37 219.52 418.51 219.45" stroke-dasharray="6 3" transform="rotate(32.32, 400, 400)" opacity="0.35"></path><path d="M414.11 230.86C420.78 230.21 427.22 229.35 433.4 228.34 442.52 226.16 459.29 221.63 466.84 219.77 480.13 218.16 496.09 222.08 500 225.88 503.55 230.81 509.3 243.87 511.75 251.77 513.56 257.41 515.34 263.39 517.15 269.64 519.35 276.04 521.72 282.65 524.32 289.42 527.44 296.26 530.91 303.21 534.74 310.22 539.17 317.26 543.99 324.33 549.2 331.39 554.94 338.46 560.97 345.52 567.22 352.54 573.76 359.55 580.32 366.53 586.73 373.44 593.08 380.36 599.01 387.21 604.33 393.99 609.17 400.76 613.12 407.46 616.02 414.05 618.1 420.64 618.92 426.96 618.51 433 617.21 439.02 614.75 444.75 611.23 450.15 607 455.53 601.9 460.56 596.1 465.24 589.9 469.87 583.23 474.13 576.25 478 569.22 481.82 562.1 485.25 555 488.29 548.12 491.31 541.41 493.97 534.93 496.28 525.91 499.68 509.92 505.54 502.87 508.31 496.57 511.57 485.01 519.45 479.47 524.47 475.95 528.52 472.32 532.97 468.54 537.86 464.86 543.33 460.97 549.2 456.85 555.41 452.77 562.05 448.42 568.88 443.79 575.76 439.16 582.74 434.24 589.5 429.03 595.85 423.8 601.87 418.28 607.16 412.48 611.55 406.66 615.17 400.56 617.63 394.2 618.79 387.83 618.94 381.36 617.74 374.82 615.28 368.29 611.94 361.7 607.53 355.08 602.21 348.5 596.37 341.91 589.93 335.34 583.06 328.83 576.1 322.37 569.01 316 561.94 309.7 555.14 303.52 548.56 297.5 542.29 291.59 536.52 285.87 531.13 280.39 526.14 275.05 521.71 269.98 517.65 265.22 513.91 258.5 509.17 247.16 501.11 242.62 497.41 235.97 490.12 230.1 477.08 229.34 471.63 228.7 465.78 228.02 452.2 227.76 444.5 227.32 439.22 226.89 433.61 226.45 427.68 225.68 421.74 224.89 415.5 224.1 408.95 222.99 402.41 221.94 395.74 221 388.97 219.86 382.2 218.9 375.33 218.18 368.39 217.4 361.46 216.94 354.46 216.83 347.42 216.81 340.4 217.22 333.34 218.06 326.28 219.1 319.25 220.62 312.24 222.62 305.28 224.87 298.4 227.6 291.6 230.81 284.96 234.26 278.43 238.16 272.1 242.47 266.03 247 260.16 251.9 254.6 257.12 249.43 262.51 244.53 268.19 240.08 274.1 236.13 280.12 232.5 286.34 229.42 292.71 226.93 299.14 224.76 305.7 223.18 312.34 222.19 319.02 221.46 325.76 221.27 332.54 221.58 339.33 222.01 346.16 222.83 352.98 223.98 359.82 225.04 366.66 226.27 373.49 227.61 380.32 228.63 387.13 229.59 393.9 230.45 400.68 230.8 407.42 230.95 414.1 230.86" stroke-dasharray="1 11" transform="rotate(36.36, 400, 400)" opacity="0.39"></path><path d="M408.52 242.27C417.69 241.26 434.74 237.95 442.55 235.96 452.69 232.73 461.59 230.47 469.15 229.63 476.56 229.4 482.66 231.3 487.52 235.35 492.52 240.62 496.7 247.98 500.4 257.06 505.05 267.1 510.01 278.42 515.7 290.57 523.22 303.17 532.01 316.23 542.02 329.41 553.66 342.73 565.86 356.02 577.73 369.05 583.56 375.58 588.98 382.04 593.83 388.4 598.23 394.77 601.83 401.04 604.5 407.18 606.85 416.25 604.92 432.94 600.83 440.5 592.89 450.32 582.09 458.82 569.5 465.96 556.48 473.04 543.11 478.86 530.09 483.57 518.17 488.64 507.09 493.14 496.89 497.49 487.95 503.1 479.52 509.39 471.34 516.76 463.86 526.13 456.08 536.86 447.77 548.71 439.65 561.79 430.69 574.82 420.81 586.67 415.87 592.13 410.68 596.92 405.25 600.86 399.81 604.12 394.14 606.33 388.23 607.38 382.33 607.55 376.34 606.51 370.31 604.35 364.28 601.4 358.22 597.47 352.16 592.71 340.11 581.79 328.15 568.98 316.58 555.48 305.3 542.64 294.61 530.51 284.83 519.55 275.55 510.42 267.39 502.45 260.61 495.37 254.43 489.68 249.66 484.14 246.4 478.34 243.45 473.07 241.72 466.94 241.06 459.75 240.03 452.59 239.54 444.16 239.4 434.45 238.69 426.99 236.81 410.51 235.63 401.52 234.54 395.43 233.52 389.2 232.59 382.87 231.47 376.54 230.53 370.11 229.78 363.62 228.14 350.66 227.8 337.49 228.93 324.36 230.64 311.43 234.18 298.75 239.45 286.69 245.58 275.18 253.37 264.67 262.52 255.61 272.33 247.55 283.22 241.29 294.84 237.14 306.81 234.06 319.26 232.97 331.94 233.75 344.75 234.79 357.67 236.87 370.49 239.52 376.92 240.41 383.32 241.25 389.67 241.99 396.02 242.27 402.31 242.37 408.51 242.27" stroke-dasharray="11 8" transform="rotate(40.400000000000006, 400, 400)" opacity="0.43"></path><path d="M402.22 253.68C413.67 252.08 424.13 250.06 433.51 247.94 442.82 244.94 450.99 242.74 458 241.73 464.96 241.1 470.85 242.31 475.79 245.4 481.02 249.49 485.7 255.51 490.14 263.17 495.55 271.71 501.35 281.57 507.85 292.34 515.92 303.6 525.01 315.44 534.99 327.51 546.22 339.78 557.69 352.1 568.64 364.21 579.09 376.37 587.53 388.26 592.97 399.65 595.91 411.03 594.91 421.32 590.3 430.45 583.44 439.53 573.9 447.45 562.55 454.21 550.6 461.02 538.04 466.86 525.53 471.9 513.76 477.42 502.53 482.66 492 487.96 482.49 494.47 473.48 501.69 464.79 509.86 456.77 519.67 448.64 530.53 440.21 542.12 432.04 554.52 423.26 566.61 413.81 577.39 404.38 586.82 394.18 593.32 383.25 595.97 372.31 595.56 361.21 591.02 350.16 583.1 339.21 573.32 328.46 561.62 318.15 549.03 308.1 536.75 298.7 524.8 290.2 513.66 282.13 503.96 275.13 495.21 269.41 487.29 264.14 480.63 260.14 474.27 257.45 467.89 254.93 462.1 253.45 455.76 252.87 448.63 251.86 441.65 251.3 433.64 251.04 424.55 249.74 415.45 248.43 405.23 247.15 393.94 244.79 382.65 242.82 370.88 241.45 358.87 239.76 346.93 239.23 334.86 240.01 322.92 241.22 311.23 244.06 299.91 248.48 289.3 253.64 279.25 260.35 270.26 268.36 262.7 277.01 256.02 286.73 251.02 297.23 247.91 308.09 245.63 319.51 245.06 331.2 246.08 343.05 247.14 355.05 249.06 366.96 251.43 378.93 252.61 390.76 253.43 402.21 253.68" stroke-dasharray="8 9" transform="rotate(44.44, 400, 400)" opacity="0.47"></path><path d="M395.73 265.09C406.26 263.62 415.88 261.82 424.52 259.93 433.13 257.18 440.76 255.1 447.41 253.99 454.1 253.08 459.97 253.73 465.15 256.01 470.68 259.07 475.91 263.86 481.06 270.18 487.13 277.27 493.62 285.66 500.72 295 509.12 304.84 518.3 315.34 528.08 326.18 538.76 337.24 549.45 348.45 559.46 359.54 568.93 370.69 576.53 381.64 581.44 392.14 584.22 402.65 583.53 412.18 579.65 420.69 573.79 429.2 565.45 436.73 555.34 443.33 544.53 450.07 532.93 456.1 521.12 461.61 509.74 467.66 498.65 473.63 488.05 479.8 478.24 487.07 468.86 494.99 459.81 503.7 451.36 513.7 442.94 524.45 434.41 535.58 426.14 547.19 417.49 558.28 408.41 568 399.37 576.44 389.77 582.21 379.66 584.56 369.54 584.27 359.41 580.35 349.46 573.37 339.58 564.69 329.99 554.12 320.92 542.53 312.06 530.98 303.87 519.43 296.57 508.38 289.61 498.39 283.66 489.13 278.86 480.59 274.38 473.12 271.02 466.02 268.79 459.05 266.6 452.69 265.29 446.01 264.73 438.83 263.7 431.84 263.05 424.08 262.65 415.47 261.3 406.87 259.96 397.35 258.68 386.92 256.41 376.5 254.52 365.71 253.17 354.78 251.48 343.92 250.81 333.05 251.28 322.42 252.06 312.05 254.29 302.14 257.93 293.03 262.18 284.43 267.86 276.9 274.76 270.74 282.24 265.32 290.77 261.42 300.08 259.19 309.78 257.56 320.05 257.38 330.65 258.51 341.44 259.54 352.42 261.25 363.34 263.32 374.34 264.26 385.21 264.91 395.73 265.09" stroke-dasharray="10 9" transform="rotate(48.48, 400, 400)" opacity="0.51"></path><path d="M389.61 276.5C399.23 275.16 408.08 273.57 416.11 271.93 424.13 269.45 431.35 267.53 437.8 266.41 444.36 265.34 450.31 265.56 455.79 267.17 461.67 269.36 467.4 273.07 473.18 278.17 479.76 283.91 486.75 290.88 494.23 298.82 502.75 307.21 511.82 316.32 521.24 325.87 531.27 335.64 541.11 345.65 550.19 355.66 558.71 365.74 565.5 375.71 569.91 385.37 572.52 395.02 572.1 403.87 568.87 411.9 563.95 419.94 556.75 427.23 547.86 433.83 538.22 440.61 527.67 446.92 516.73 452.94 505.97 459.49 495.26 466.11 484.86 472.99 475.02 480.8 465.5 489.19 456.31 498.17 447.6 508.11 438.99 518.52 430.42 529.04 422.1 539.77 413.58 549.83 404.83 558.51 396.14 566 387.1 571.08 377.76 573.16 368.41 572.98 359.2 569.6 350.28 563.52 341.42 555.9 332.94 546.47 325.02 535.94 317.27 525.24 310.2 514.29 303.98 503.57 298.01 493.58 292.96 484.08 288.95 475.16 285.13 467.11 282.27 459.43 280.39 451.97 278.43 445.07 277.21 438.04 276.62 430.74 275.54 423.65 274.78 416.04 274.25 407.81 272.85 399.61 271.48 390.71 270.21 381.12 268.04 371.53 266.24 361.73 264.94 351.91 263.28 342.17 262.52 332.54 262.75 323.25 263.18 314.21 264.88 305.72 267.82 298.05 271.25 290.84 275.97 284.67 281.81 279.77 288.15 275.44 295.5 272.48 303.64 270.94 312.12 269.81 321.21 269.88 330.67 271.03 340.32 271.96 350.21 273.44 360.11 275.19 370.08 275.91 379.98 276.39 389.61 276.5" stroke-dasharray="6 5" transform="rotate(52.52, 400, 400)" opacity="0.54"></path><path d="M384.34 287.91C393.11 286.7 401.27 285.31 408.78 283.91 416.29 281.73 423.21 280 429.56 278.94 436.04 277.8 442.12 277.73 447.9 278.83 454.07 280.31 460.21 283.11 466.45 287.14 473.38 291.67 480.66 297.35 488.3 303.96 496.73 310.95 505.51 318.7 514.42 326.95 523.71 335.41 532.67 344.21 540.82 353.13 548.41 362.11 554.45 371.1 558.39 379.94 560.81 388.78 560.62 397.03 557.98 404.65 553.9 412.31 547.77 419.44 540.06 426.1 531.61 432.96 522.19 439.56 512.23 446.03 502.27 452.98 492.17 460.09 482.21 467.47 472.61 475.58 463.21 484.16 454.08 493.14 445.32 502.8 436.71 512.68 428.21 522.45 419.92 532.23 411.58 541.25 403.18 548.91 394.84 555.49 386.33 559.93 377.71 561.75 369.08 561.66 360.73 558.8 352.77 553.55 344.85 546.94 337.38 538.63 330.51 529.19 323.75 519.45 317.66 509.28 312.38 499.09 307.26 489.37 302.97 479.92 299.59 470.89 296.29 462.52 293.82 454.47 292.16 446.68 290.36 439.37 289.16 432.06 288.5 424.65 287.35 417.46 286.47 409.94 285.81 402.05 284.37 394.2 283 385.86 281.73 377.06 279.69 368.26 277.99 359.43 276.75 350.72 275.16 342.08 274.35 333.67 274.41 325.71 274.56 317.95 275.81 310.8 278.15 304.48 280.86 298.52 284.7 293.54 289.58 289.73 294.85 286.33 301.07 284.11 308.06 283.1 315.34 282.31 323.24 282.52 331.56 283.6 340.05 284.38 348.83 285.59 357.7 287.04 366.63 287.53 375.57 287.86 384.34 287.91" stroke-dasharray="5 2" transform="rotate(56.56, 400, 400)" opacity="0.58"></path><path d="M380.38 299.32C388.34 298.23 395.86 297.05 402.91 295.88 409.98 294 416.64 292.5 422.91 291.55 429.32 290.43 435.5 290.2 441.52 290.92 447.88 291.88 454.29 293.94 460.82 297.08 467.89 300.57 475.23 305.1 482.81 310.51 490.96 316.23 499.28 322.69 507.56 329.72 516.05 336.91 524.11 344.52 531.34 352.37 538.06 360.27 543.38 368.32 546.86 376.38 549.1 384.43 549.09 392.11 546.98 399.37 543.66 406.68 538.53 413.68 531.94 420.39 524.66 427.29 516.38 434.1 507.5 440.89 498.48 448.08 489.18 455.47 479.87 463.09 470.75 471.26 461.72 479.77 452.88 488.5 444.3 497.66 435.86 506.85 427.58 515.76 419.46 524.54 411.39 532.51 403.38 539.2 395.43 544.92 387.46 548.77 379.51 550.34 371.57 550.33 364.01 547.93 356.93 543.45 349.85 537.8 343.29 530.58 337.33 522.25 331.43 513.54 326.19 504.27 321.69 494.81 317.26 485.59 313.57 476.46 310.68 467.59 307.77 459.18 305.57 451.01 304.05 443.09 302.33 435.56 301.12 428.1 300.35 420.67 299.12 413.43 298.13 406.05 297.34 398.48 295.87 390.97 294.5 383.17 293.26 375.13 291.34 367.09 289.77 359.18 288.61 351.54 287.12 343.94 286.3 336.69 286.23 329.96 286.63 320.41 292.54 305.47 298.09 300.56 302.4 297.89 307.58 296.23 313.49 295.59 319.63 295.01 326.4 295.25 333.61 296.19 340.96 296.77 348.64 297.71 356.5 298.85 364.41 299.14 372.42 299.32 380.38 299.32" stroke-dasharray="3 11" transform="rotate(60.599999999999994, 400, 400)" opacity="0.62"></path><path d="M378.05 310.73C385.24 309.77 392.17 308.77 398.79 307.83 405.44 306.25 411.84 305.01 418.01 304.21 424.31 303.19 430.51 302.89 436.64 303.38 443.05 303.96 449.55 305.47 456.14 307.89 463.15 310.55 470.35 314.12 477.66 318.49 485.36 323.08 493.09 328.4 500.64 334.3 508.27 340.32 515.43 346.83 521.77 353.67 527.64 360.55 532.28 367.7 535.34 375.01 537.38 382.31 537.52 389.44 535.87 396.35 533.23 403.29 529 410.11 523.47 416.79 517.31 423.64 510.19 430.52 502.42 437.43 494.44 444.66 486.09 452.08 477.59 459.68 469.17 467.66 460.73 475.84 452.4 484.09 444.23 492.58 436.16 500.95 428.26 508.92 420.47 516.67 412.78 523.62 405.24 529.38 397.73 534.29 390.31 537.58 383.02 538.93 375.73 538.99 368.91 537.01 362.6 533.24 356.29 528.48 350.51 522.3 345.32 515.08 340.15 507.43 335.6 499.16 331.72 490.58 327.85 482.06 324.63 473.48 322.09 465.02 319.47 456.86 317.44 448.84 315.98 441.03 314.29 433.5 313.02 426.07 312.14 418.76 310.81 411.6 309.72 404.42 308.83 397.22 307.35 390.07 305.98 382.82 304.79 375.5 303.01 368.19 301.56 361.15 300.5 354.49 298.74 344.76 298.34 328.05 300.08 321.48 302.88 315.95 312.95 309.38 320 308.3 325.11 307.82 330.81 308 336.98 308.74 343.25 309.11 349.9 309.78 356.8 310.62 363.73 310.73 370.85 310.78 378.05 310.73" stroke-dasharray="7 6" transform="rotate(64.64, 400, 400)" opacity="0.66"></path><path d="M377.55 322.14C384.01 321.3 390.36 320.49 396.54 319.75 402.76 318.48 408.87 317.49 414.86 316.88 420.97 316.02 427.06 315.74 433.14 316.1 439.43 316.46 445.82 317.59 452.27 319.48 459.01 321.49 465.86 324.28 472.73 327.8 479.82 331.46 486.84 335.79 493.61 340.7 500.35 345.7 506.6 351.2 512.09 357.11 517.16 363.05 521.16 369.35 523.81 375.94 525.66 382.53 525.91 389.1 524.65 395.6 522.61 402.15 519.2 408.69 514.65 415.22 509.55 421.88 503.56 428.63 496.91 435.46 490.03 442.5 482.71 449.71 475.16 457.01 467.6 464.56 459.93 472.2 452.29 479.78 444.73 487.45 437.22 494.9 429.86 501.89 422.58 508.61 415.4 514.56 408.39 519.43 401.42 523.6 394.58 526.38 387.94 527.52 381.31 527.63 375.16 526.03 369.54 522.91 363.91 518.97 358.8 513.78 354.25 507.63 349.7 501.06 345.7 493.85 342.3 486.25 338.86 478.6 335.99 470.77 333.67 462.94 331.26 455.27 329.33 447.65 327.87 440.19 326.17 432.91 324.83 425.73 323.82 418.7 322.43 411.79 321.24 404.93 320.27 398.17 318.79 391.45 317.46 384.75 316.32 378.14 314.03 368.42 310.83 351.14 310.31 343.8 312.02 332.23 321.83 322.03 327.62 321.15 334.19 320.71 349.92 321.58 358.77 322.35 364.79 322.29 371.08 322.22 377.55 322.14" stroke-dasharray="5 7" transform="rotate(68.68, 400, 400)" opacity="0.70"></path><path d="M378.91 333.55C390.45 331.51 402.02 330.03 413.35 329.51 425.03 328 437.01 328.64 449.02 331.65 461.76 334.83 474.58 340.67 486.42 348.77 497.98 357.07 507.18 367.33 512.28 379.11 514.92 390.87 512.3 403.11 505.47 415.45 496.83 428.14 485.28 441.43 472.35 454.84 459.13 468.75 445.36 482.47 431.97 494.62 418.74 505.69 405.84 513.44 393.87 516.11 381.89 515.6 371.82 509.67 363.8 499.88 355.68 488.56 349.48 475.1 345.27 461.07 340.56 447.22 337.31 433.36 335.38 420.15 332.14 407.25 329.57 394.64 327.84 382.81 324.51 370.97 322.68 360.92 322.51 353.02 322.87 342.49 335.86 333.31 348 333.63 356.9 333.11 367.37 333.16 378.91 333.55" stroke-dasharray="2 4" transform="rotate(72.72, 400, 400)" opacity="0.73"></path><path d="M382.03 344.96C392.2 343.27 402.73 342.24 413.26 342.08 424.03 341.01 435.14 341.67 446.17 344.24 457.6 346.75 468.88 351.49 479.04 358.25 488.82 365.09 496.5 373.82 500.75 384.2 503.16 394.58 501.28 405.7 495.93 417.09 489.14 428.69 479.75 440.83 468.95 452.9 457.78 465.12 445.87 476.92 434.11 487.08 422.41 496.25 410.94 502.56 400.3 504.7 389.66 504.43 380.74 499.74 373.62 491.79 366.36 482.53 360.72 471.21 356.72 459.12 352.23 446.95 348.93 434.53 346.79 422.63 343.57 410.89 341.03 399.52 339.37 389.06 336.44 378.61 334.89 369.96 334.8 363.32 335.01 354.37 345.48 346.16 355.55 345.88 362.92 345.02 371.85 344.75 382.03 344.96" stroke-dasharray="11 0" transform="rotate(76.76, 400, 400)" opacity="0.77"></path><path d="M386.64 356.37C395.46 355.01 404.8 354.36 414.26 354.53 423.87 353.92 433.78 354.7 443.5 357 453.41 359.13 462.99 363.06 471.44 368.73 479.5 374.39 485.76 381.78 489.23 390.77 491.36 399.75 490.1 409.55 486.03 419.66 480.89 429.88 473.52 440.51 464.81 450.9 455.73 461.24 445.82 471.02 435.85 479.24 425.87 486.61 415.97 491.62 406.71 493.29 397.45 493.21 389.62 489.61 383.29 483.35 376.82 476.04 371.66 466.87 367.83 456.83 363.57 446.58 360.29 435.94 358 425.61 354.89 415.34 352.45 405.4 350.9 396.33 347.75 383.57 347.33 366.52 350.8 362.16 353.61 359.5 358.14 358.15 364.2 357.95 370.27 356.83 377.82 356.31 386.64 356.37" stroke-dasharray="1 3" transform="rotate(80.80000000000001, 400, 400)" opacity="0.81"></path><path d="M392.37 367.78C399.82 366.72 407.82 366.4 415.96 366.83 424.18 366.65 432.62 367.59 440.8 369.73 449.02 371.64 456.84 374.99 463.6 379.74 470.02 384.44 474.96 390.61 477.7 398.18 479.53 405.76 478.75 414.06 475.78 422.63 472.07 431.23 466.53 440.07 459.79 448.58 452.74 456.94 444.86 464.69 436.75 471.07 428.61 476.79 420.38 480.63 412.56 481.88 404.74 481.93 398.01 479.28 392.44 474.54 386.77 469.02 382.09 461.91 378.46 453.95 374.49 445.75 371.32 437.06 369.01 428.5 366.1 419.93 363.83 411.58 362.43 403.94 359.84 393.18 359.76 378.56 362.69 374.51 366.83 371.17 381.78 368.18 392.37 367.78" stroke-dasharray="2 8" transform="rotate(84.84, 400, 400)" opacity="0.85"></path><path d="M398.73 379.19C410.84 376.99 424.88 378 437.85 382.16 450.7 385.56 461.51 393.51 466.17 405.77 468.58 418.02 463.43 432.5 453.82 445.69 443.27 458.28 430.02 467.96 417.37 470.47 404.71 469.99 394.86 461.94 388.45 450.27 381.12 437.77 375.91 423.54 373.95 411.19 370.18 398.83 370.56 390.48 374.69 386.34 378.39 381.25 386.61 378.77 398.73 379.19" stroke-dasharray="6 5" transform="rotate(88.88, 400, 400)" opacity="0.89"></path><path d="M405.19 390.6C414.42 389.16 424.95 390.44 434.45 394.08 443.77 397.2 451.42 403.53 454.64 412.82 456.63 422.1 453.37 432.7 446.83 442.02 439.73 450.87 430.29 457.47 420.73 459.06 411.16 458.98 403.22 453.66 397.68 445.62 391.61 437 387.18 426.74 385.48 417.39 382.99 404.66 392.79 391.77 405.19 390.6" stroke-dasharray="10 3" transform="rotate(92.92, 400, 400)" opacity="0.92"></path><path d="M411.23 402.01C423.7 399.73 438.68 406.18 443.12 418.68 445.41 431.17 435.16 445.21 422.36 447.65 409.55 447.18 399.07 434.54 397.01 421.99 393.01 409.43 398.74 401.58 411.23 402.01" stroke-dasharray="9 1" transform="rotate(96.96, 400, 400)" opacity="0.96"></path></g></svg>